<mxfile host="app.diagrams.net" agent="Mozilla/5.0 (Windows NT 10.0; Win64; x64; rv:130.0) Gecko/20100101 Firefox/130.0" version="24.7.12">
  <diagram name="Page-1" id="bQ7-ze7bNTLgdXtpytGF">
    <mxGraphModel dx="1728" dy="922" grid="1" gridSize="10" guides="1" tooltips="1" connect="1" arrows="1" fold="1" page="1" pageScale="1" pageWidth="850" pageHeight="1100" math="0" shadow="0">
      <root>
        <mxCell id="0" />
        <mxCell id="1" parent="0" />
        <mxCell id="uMFr3rRxvoZeneaBYagY-19" style="edgeStyle=orthogonalEdgeStyle;rounded=0;orthogonalLoop=1;jettySize=auto;html=1;exitX=0.5;exitY=0;exitDx=0;exitDy=0;entryX=0.5;entryY=1;entryDx=0;entryDy=0;fillColor=#f8cecc;strokeColor=#b85450;" edge="1" parent="1" source="uMFr3rRxvoZeneaBYagY-2" target="uMFr3rRxvoZeneaBYagY-1">
          <mxGeometry relative="1" as="geometry" />
        </mxCell>
        <mxCell id="uMFr3rRxvoZeneaBYagY-2" value="" style="rounded=0;whiteSpace=wrap;html=1;" vertex="1" parent="1">
          <mxGeometry x="200" y="560" width="440" height="280" as="geometry" />
        </mxCell>
        <mxCell id="uMFr3rRxvoZeneaBYagY-13" value="" style="rounded=0;whiteSpace=wrap;html=1;" vertex="1" parent="1">
          <mxGeometry x="330" y="590" width="302" height="240" as="geometry" />
        </mxCell>
        <mxCell id="uMFr3rRxvoZeneaBYagY-1" value="" style="rounded=0;whiteSpace=wrap;html=1;" vertex="1" parent="1">
          <mxGeometry x="360" y="320" width="120" height="120" as="geometry" />
        </mxCell>
        <mxCell id="uMFr3rRxvoZeneaBYagY-3" value="" style="rounded=0;whiteSpace=wrap;html=1;" vertex="1" parent="1">
          <mxGeometry x="210" y="590" width="100" height="240" as="geometry" />
        </mxCell>
        <mxCell id="uMFr3rRxvoZeneaBYagY-4" value="&lt;div align=&quot;left&quot;&gt;Module (Zynq board)&lt;/div&gt;" style="text;html=1;align=left;verticalAlign=middle;whiteSpace=wrap;rounded=0;" vertex="1" parent="1">
          <mxGeometry x="205" y="560" width="120" height="30" as="geometry" />
        </mxCell>
        <mxCell id="uMFr3rRxvoZeneaBYagY-5" value="Processor" style="text;html=1;align=left;verticalAlign=middle;whiteSpace=wrap;rounded=0;" vertex="1" parent="1">
          <mxGeometry x="225" y="590" width="65" height="30" as="geometry" />
        </mxCell>
        <mxCell id="uMFr3rRxvoZeneaBYagY-7" value="" style="rounded=0;whiteSpace=wrap;html=1;" vertex="1" parent="1">
          <mxGeometry x="340" y="620" width="85" height="200" as="geometry" />
        </mxCell>
        <mxCell id="uMFr3rRxvoZeneaBYagY-8" value="Worker" style="text;html=1;align=left;verticalAlign=middle;whiteSpace=wrap;rounded=0;" vertex="1" parent="1">
          <mxGeometry x="350" y="620" width="65" height="30" as="geometry" />
        </mxCell>
        <mxCell id="uMFr3rRxvoZeneaBYagY-9" value="" style="rounded=0;whiteSpace=wrap;html=1;" vertex="1" parent="1">
          <mxGeometry x="440" y="620" width="85" height="200" as="geometry" />
        </mxCell>
        <mxCell id="uMFr3rRxvoZeneaBYagY-10" value="Worker" style="text;html=1;align=left;verticalAlign=middle;whiteSpace=wrap;rounded=0;" vertex="1" parent="1">
          <mxGeometry x="450" y="620" width="65" height="30" as="geometry" />
        </mxCell>
        <mxCell id="uMFr3rRxvoZeneaBYagY-11" value="" style="rounded=0;whiteSpace=wrap;html=1;" vertex="1" parent="1">
          <mxGeometry x="540" y="620" width="85" height="200" as="geometry" />
        </mxCell>
        <mxCell id="uMFr3rRxvoZeneaBYagY-12" value="Worker" style="text;html=1;align=left;verticalAlign=middle;whiteSpace=wrap;rounded=0;" vertex="1" parent="1">
          <mxGeometry x="550" y="620" width="65" height="30" as="geometry" />
        </mxCell>
        <mxCell id="uMFr3rRxvoZeneaBYagY-14" value="FPGA" style="text;html=1;align=left;verticalAlign=middle;whiteSpace=wrap;rounded=0;" vertex="1" parent="1">
          <mxGeometry x="461" y="590" width="40" height="30" as="geometry" />
        </mxCell>
        <mxCell id="uMFr3rRxvoZeneaBYagY-15" value="PC" style="text;html=1;align=left;verticalAlign=middle;whiteSpace=wrap;rounded=0;" vertex="1" parent="1">
          <mxGeometry x="365" y="320" width="30" height="30" as="geometry" />
        </mxCell>
        <mxCell id="uMFr3rRxvoZeneaBYagY-16" value="" style="rounded=0;whiteSpace=wrap;html=1;" vertex="1" parent="1">
          <mxGeometry x="370" y="350" width="100" height="80" as="geometry" />
        </mxCell>
        <mxCell id="uMFr3rRxvoZeneaBYagY-17" value="&lt;div align=&quot;center&quot;&gt;Python driver&lt;/div&gt;" style="text;html=1;align=center;verticalAlign=middle;whiteSpace=wrap;rounded=0;" vertex="1" parent="1">
          <mxGeometry x="405" y="365" width="30" height="30" as="geometry" />
        </mxCell>
        <mxCell id="uMFr3rRxvoZeneaBYagY-33" style="edgeStyle=orthogonalEdgeStyle;rounded=0;orthogonalLoop=1;jettySize=auto;html=1;exitX=0.5;exitY=0;exitDx=0;exitDy=0;entryX=0.25;entryY=1;entryDx=0;entryDy=0;fillColor=#f8cecc;strokeColor=#b85450;" edge="1" parent="1" source="uMFr3rRxvoZeneaBYagY-20" target="uMFr3rRxvoZeneaBYagY-1">
          <mxGeometry relative="1" as="geometry" />
        </mxCell>
        <mxCell id="uMFr3rRxvoZeneaBYagY-20" value="" style="rounded=0;whiteSpace=wrap;html=1;" vertex="1" parent="1">
          <mxGeometry x="20" y="560" width="140" height="280" as="geometry" />
        </mxCell>
        <mxCell id="uMFr3rRxvoZeneaBYagY-23" value="&lt;div align=&quot;left&quot;&gt;Module (Zynq board)&lt;/div&gt;" style="text;html=1;align=left;verticalAlign=middle;whiteSpace=wrap;rounded=0;" vertex="1" parent="1">
          <mxGeometry x="25" y="560" width="120" height="30" as="geometry" />
        </mxCell>
        <mxCell id="uMFr3rRxvoZeneaBYagY-36" style="edgeStyle=orthogonalEdgeStyle;rounded=0;orthogonalLoop=1;jettySize=auto;html=1;exitX=0.5;exitY=0;exitDx=0;exitDy=0;entryX=0.75;entryY=1;entryDx=0;entryDy=0;fillColor=#f8cecc;strokeColor=#b85450;" edge="1" parent="1" source="uMFr3rRxvoZeneaBYagY-34" target="uMFr3rRxvoZeneaBYagY-1">
          <mxGeometry relative="1" as="geometry" />
        </mxCell>
        <mxCell id="uMFr3rRxvoZeneaBYagY-34" value="" style="rounded=0;whiteSpace=wrap;html=1;" vertex="1" parent="1">
          <mxGeometry x="680" y="560" width="140" height="280" as="geometry" />
        </mxCell>
        <mxCell id="uMFr3rRxvoZeneaBYagY-35" value="&lt;div align=&quot;left&quot;&gt;Module (Zynq board)&lt;/div&gt;" style="text;html=1;align=left;verticalAlign=middle;whiteSpace=wrap;rounded=0;" vertex="1" parent="1">
          <mxGeometry x="685" y="560" width="120" height="30" as="geometry" />
        </mxCell>
        <mxCell id="uMFr3rRxvoZeneaBYagY-40" value="" style="shape=flexArrow;endArrow=none;html=1;rounded=0;endFill=0;fillColor=#d5e8d4;strokeColor=#82b366;" edge="1" parent="1">
          <mxGeometry width="50" height="50" relative="1" as="geometry">
            <mxPoint x="582.26" y="725" as="sourcePoint" />
            <mxPoint x="582.26" y="675" as="targetPoint" />
          </mxGeometry>
        </mxCell>
        <mxCell id="uMFr3rRxvoZeneaBYagY-41" value="" style="shape=flexArrow;endArrow=none;html=1;rounded=0;endFill=0;fillColor=#d5e8d4;strokeColor=#82b366;" edge="1" parent="1">
          <mxGeometry width="50" height="50" relative="1" as="geometry">
            <mxPoint x="482.26" y="725" as="sourcePoint" />
            <mxPoint x="482.26" y="675" as="targetPoint" />
          </mxGeometry>
        </mxCell>
        <mxCell id="uMFr3rRxvoZeneaBYagY-42" value="" style="shape=flexArrow;endArrow=none;html=1;rounded=0;endFill=0;fillColor=#d5e8d4;strokeColor=#82b366;" edge="1" parent="1">
          <mxGeometry width="50" height="50" relative="1" as="geometry">
            <mxPoint x="379.76" y="725" as="sourcePoint" />
            <mxPoint x="379.76" y="675" as="targetPoint" />
          </mxGeometry>
        </mxCell>
        <mxCell id="uMFr3rRxvoZeneaBYagY-39" value="" style="shape=flexArrow;endArrow=classic;html=1;rounded=0;fillColor=#d5e8d4;strokeColor=#82b366;" edge="1" parent="1">
          <mxGeometry width="50" height="50" relative="1" as="geometry">
            <mxPoint x="588" y="680" as="sourcePoint" />
            <mxPoint x="280" y="680" as="targetPoint" />
          </mxGeometry>
        </mxCell>
      </root>
    </mxGraphModel>
  </diagram>
</mxfile>
